<?xml version="1.0" encoding="UTF-8" standalone="no"?>
<!-- Created with Inkscape (http://www.inkscape.org/) -->

<svg
   width="62.032719mm"
   height="19.782394mm"
   viewBox="0 0 62.03272 19.782395"
   version="1.1"
   id="svg5"
   inkscape:version="1.1.1 (3bf5ae0d25, 2021-09-20)"
   sodipodi:docname="logo.svg"
   xmlns:inkscape="http://www.inkscape.org/namespaces/inkscape"
   xmlns:sodipodi="http://sodipodi.sourceforge.net/DTD/sodipodi-0.dtd"
   xmlns="http://www.w3.org/2000/svg"
   xmlns:svg="http://www.w3.org/2000/svg">
  <sodipodi:namedview
     id="namedview7"
     pagecolor="#ffffff"
     bordercolor="#666666"
     borderopacity="1.0"
     inkscape:pageshadow="2"
     inkscape:pageopacity="0.0"
     inkscape:pagecheckerboard="0"
     inkscape:document-units="mm"
     showgrid="false"
     inkscape:zoom="0.71446413"
     inkscape:cx="541.6647"
     inkscape:cy="164.45892"
     inkscape:window-width="1920"
     inkscape:window-height="991"
     inkscape:window-x="2391"
     inkscape:window-y="-9"
     inkscape:window-maximized="1"
     inkscape:current-layer="layer1"
     fit-margin-top="0"
     fit-margin-left="0"
     fit-margin-right="0"
     fit-margin-bottom="0" />
  <defs
     id="defs2" />
  <g
     inkscape:label="Layer 1"
     inkscape:groupmode="layer"
     id="layer1"
     transform="translate(957.25141,-790.28211)">
    <g
       id="g45976"
       inkscape:export-filename="C:\Program Files\ymok\plan\text\public\logo.png"
       inkscape:export-xdpi="11.271521"
       inkscape:export-ydpi="11.271521"
       transform="matrix(0.21450925,0,0,0.21450925,-751.91213,620.75929)">
      <text
         xml:space="preserve"
         style="font-style:normal;font-variant:normal;font-weight:bold;font-stretch:normal;font-size:75.6973px;line-height:1.25;font-family:'Product Sans';-inkscape-font-specification:'Product Sans Bold';letter-spacing:1.32292px;fill:#000000;fill-opacity:1;stroke:none;stroke-width:0.264583"
         x="-903.7334"
         y="862.90546"
         id="text25446-0-9-3-5"><tspan
           sodipodi:role="line"
           id="tspan25444-1-9-2-3"
           style="font-style:normal;font-variant:normal;font-weight:bold;font-stretch:normal;font-family:'Product Sans';-inkscape-font-specification:'Product Sans Bold';stroke-width:0.264583"
           x="-903.7334"
           y="862.90546">schola</tspan></text>
      <g
         id="g32055-3-5-0-8-3-7-1-4-9"
         transform="translate(-1289.4417,426.22473)"
         style="fill:#008000;fill-opacity:1">
        <path
           id="path14945-48-5-6-2-1-6-9-7-3-0-4-6-6"
           style="fill:#008000;fill-opacity:1;stroke-width:0.204133"
           d="m 343.15434,409.66161 c -1.43265,0 -2.86531,0.37409 -4.15323,1.12238 -1.98912,1.15573 -3.3886,3.06692 -3.92328,5.26172 -0.12882,0.89868 -0.19895,1.81695 -0.19895,2.75228 0,10.57447 8.51892,19.09392 19.09341,19.09392 10.57449,0 19.09237,-8.51945 19.09237,-19.09392 0,-0.9339 -0.07,-1.85076 -0.19844,-2.74815 -0.53448,-2.19652 -1.93549,-4.10938 -3.92585,-5.26585 -2.57587,-1.49658 -5.72855,-1.49658 -8.30442,0 -2.5584,1.48649 -4.14373,4.22254 -4.16512,7.20474 9e-5,0.0204 0.001,0.0406 0.001,0.061 h -5.2e-4 v 8.40517 h -5.00021 v -8.40517 h -0.002 c 0,-0.0204 9.4e-4,-0.0406 10e-4,-0.061 -0.0214,-2.9822 -1.60465,-5.71825 -4.16305,-7.20474 -1.28794,-0.74829 -2.72059,-1.12241 -4.15324,-1.12238 z m 0.002,3.9429 c 1.84474,3e-5 3.3401,1.49562 3.33985,3.34036 -3e-5,1.84453 -1.49532,3.33981 -3.33985,3.33984 -1.84453,-3e-5 -3.33981,-1.49531 -3.33984,-3.33984 -2.5e-4,-1.84473 1.49511,-3.34033 3.33984,-3.34036 z m 21.63382,0 c 1.84474,3e-5 3.3401,1.49562 3.33985,3.34036 -3e-5,1.84453 -1.49532,3.33981 -3.33985,3.33984 -1.84453,-3e-5 -3.33981,-1.49531 -3.33984,-3.33984 -2.5e-4,-1.84473 1.49511,-3.34033 3.33984,-3.34036 z"
           sodipodi:nodetypes="cscssscssccccccccsccscscsscscs" />
        <g
           id="g29069-3-2-2-23-4-5-1-9-7-0-3"
           style="fill:#008000;fill-opacity:1"
           transform="translate(135.25275,10.466429)" />
      </g>
      <path
         style="fill:#0000ff;fill-opacity:1;stroke-width:0.204133"
         d="m -935.46944,825.92879 c -5.06422,0 -9.65346,1.95747 -13.06484,5.15525 0.74331,-0.12753 1.49513,-0.19224 2.24689,-0.19224 2.30294,0 4.60606,0.59832 6.66523,1.79472 1.66352,0.96652 3.06774,2.26459 4.15168,3.78272 1.08432,-1.51813 2.48919,-2.8162 4.15272,-3.78272 2.73168,-1.58716 5.89247,-2.12032 8.91314,-1.60197 -3.41102,-3.19792 -8.00049,-5.15576 -13.06482,-5.15576 z"
         id="path39285-0-9-4-3-9-4-5" />
      <g
         id="g29069-3-2-2-2-3-8-5-2-0-6-2"
         style="fill:#ff0000;fill-opacity:1"
         transform="translate(-1215.9283,491.32105)">
        <path
           id="path39282-8-3-4-5-1-6-8"
           style="fill:#ff0000;fill-opacity:1;stroke-width:0.771526"
           d="m 1512.418,1431.5391 v 12.6269 c -0.01,0.4144 -0.016,0.8281 -0.016,1.2442 0,0.4161 0.01,0.8297 0.016,1.2441 v 70.8262 c 0.2209,0 0.4406,0.01 0.6621,0.01 32.3911,0 59.6781,-21.1462 68.8594,-50.4375 -28.2582,-0.8074 -53.3531,-14.5369 -69.5215,-35.5117 z"
           transform="matrix(0.26458333,0,0,0.26458333,-138.79077,-10.338033)"
           sodipodi:nodetypes="ccsccsccc" />
      </g>
      <g
         id="g29069-3-2-2-2-1-7-1-4-9-9-9"
         style="fill:#d4aa00;fill-opacity:1"
         transform="translate(-1215.9285,491.30861)">
        <path
           id="path39282-6-3-0-20-9-2-7"
           style="fill:#d4aa00;fill-opacity:1;stroke-width:0.771526"
           d="m 1656.6719,1431.5861 c -13.299,17.227 -32.626,29.5594 -54.7735,33.8555 -4.7786,21.0815 -16.903,39.4162 -33.5234,52.1641 h 15.9883 v -0.031 c 0.068,2e-4 0.1352,0 0.2031,0 38.7814,0 70.2405,-30.3193 72.0723,-68.6328 h 0.033 v -0.8926 c 0.031,-0.8769 0.053,-1.7558 0.053,-2.6406 0,-0.8848 -0.022,-1.7636 -0.053,-2.6406 z"
           transform="matrix(0.26458333,0,0,0.26458333,-138.79077,-10.338033)"
           sodipodi:nodetypes="cccccscccscc" />
      </g>
      <rect
         style="fill:none;fill-rule:evenodd;stroke-width:0.264583"
         id="rect175"
         width="289.18436"
         height="92.221611"
         x="-957.2514"
         y="790.2821" />
    </g>
  </g>
</svg>
