<?xml version="1.0" encoding="UTF-8" standalone="no"?>
<!-- Created with Inkscape (http://www.inkscape.org/) -->

<svg
   width="215.13924mm"
   height="54.787571mm"
   viewBox="0 0 215.13924 54.787571"
   version="1.1"
   id="svg5"
   inkscape:version="1.1.1 (3bf5ae0d25, 2021-09-20)"
   sodipodi:docname="logo-s.svg"
   xmlns:inkscape="http://www.inkscape.org/namespaces/inkscape"
   xmlns:sodipodi="http://sodipodi.sourceforge.net/DTD/sodipodi-0.dtd"
   xmlns="http://www.w3.org/2000/svg"
   xmlns:svg="http://www.w3.org/2000/svg">
  <sodipodi:namedview
     id="namedview7"
     pagecolor="#ffffff"
     bordercolor="#666666"
     borderopacity="1.0"
     inkscape:pageshadow="2"
     inkscape:pageopacity="0.0"
     inkscape:pagecheckerboard="0"
     inkscape:document-units="mm"
     showgrid="false"
     inkscape:zoom="0.71446412"
     inkscape:cx="409.39775"
     inkscape:cy="-4.8987764"
     inkscape:window-width="1683"
     inkscape:window-height="1033"
     inkscape:window-x="219"
     inkscape:window-y="0"
     inkscape:window-maximized="0"
     inkscape:current-layer="layer1"
     fit-margin-top="0"
     fit-margin-left="0"
     fit-margin-right="0"
     fit-margin-bottom="0" />
  <defs
     id="defs2" />
  <g
     inkscape:label="Layer 1"
     inkscape:groupmode="layer"
     id="layer1"
     transform="translate(1237.1451,-340.37879)">
    <g
       id="g303">
      <g
         id="g24925"
         transform="translate(-148.77376,179.36575)">
        <g
           id="g32055-3-5-0-8-1"
           transform="translate(-1302.0017,-222.0913)"
           style="fill:#000000;fill-opacity:1">
          <path
             id="path14945-48-5-6-2-1-6-9-7-2"
             style="fill:#000000;fill-opacity:1;stroke-width:0.204133"
             d="m 343.15434,409.66161 c -1.43265,0 -2.86531,0.37409 -4.15323,1.12238 -1.98912,1.15573 -3.3886,3.06692 -3.92328,5.26172 -0.12882,0.89868 -0.19895,1.81695 -0.19895,2.75228 0,10.57447 8.51892,19.09392 19.09341,19.09392 10.57449,0 19.09237,-8.51945 19.09237,-19.09392 0,-0.9339 -0.07,-1.85076 -0.19844,-2.74815 -0.53448,-2.19652 -1.93549,-4.10938 -3.92585,-5.26585 -2.57587,-1.49658 -5.72855,-1.49658 -8.30442,0 -2.5584,1.48649 -4.14373,4.22254 -4.16512,7.20474 9e-5,0.0204 0.001,0.0406 0.001,0.061 h -5.2e-4 v 8.40517 h -5.00021 v -8.40517 h -0.002 c 0,-0.0204 9.4e-4,-0.0406 10e-4,-0.061 -0.0214,-2.9822 -1.60465,-5.71825 -4.16305,-7.20474 -1.28794,-0.74829 -2.72059,-1.12241 -4.15324,-1.12238 z m 0.002,3.9429 c 1.84474,3e-5 3.3401,1.49562 3.33985,3.34036 -3e-5,1.84453 -1.49532,3.33981 -3.33985,3.33984 -1.84453,-3e-5 -3.33981,-1.49531 -3.33984,-3.33984 -2.5e-4,-1.84473 1.49511,-3.34033 3.33984,-3.34036 z m 21.63382,0 c 1.84474,3e-5 3.3401,1.49562 3.33985,3.34036 -3e-5,1.84453 -1.49532,3.33981 -3.33985,3.33984 -1.84453,-3e-5 -3.33981,-1.49531 -3.33984,-3.33984 -2.5e-4,-1.84473 1.49511,-3.34033 3.33984,-3.34036 z"
             sodipodi:nodetypes="cscssscssccccccccsccscscsscscs" />
          <g
             id="g29069-3-2-2-23-4-5-10"
             style="fill:#000000;fill-opacity:1"
             transform="translate(135.25275,10.466429)" />
        </g>
        <path
           style="fill:#000000;fill-opacity:1;stroke-width:0.204133"
           d="m -948.02938,177.61276 c -5.06422,0 -9.65346,1.95747 -13.06484,5.15525 0.74331,-0.12753 1.49513,-0.19224 2.24689,-0.19224 2.30294,0 4.60606,0.59832 6.66523,1.79472 1.66352,0.96652 3.06774,2.26459 4.15168,3.78272 1.08432,-1.51813 2.48919,-2.8162 4.15272,-3.78272 2.73168,-1.58716 5.89247,-2.12032 8.91314,-1.60197 -3.41102,-3.19792 -8.00049,-5.15576 -13.06482,-5.15576 z"
           id="path39285-0-9-47" />
      </g>
      <path
         d="m -1220.2568,395.07918 q -3.5869,0 -6.4265,-0.89673 -2.7649,-0.89672 -4.8573,-2.31654 -2.0176,-1.49455 -3.4375,-3.36273 -1.4198,-1.94291 -2.167,-3.88582 l 8.7431,-3.73637 q 1.2703,2.83964 3.3627,4.25946 2.1671,1.34509 4.7825,1.34509 2.6902,0 4.2595,-0.97145 1.5693,-0.97146 1.5693,-2.31655 0,-1.49455 -1.3451,-2.39127 -1.2704,-0.97146 -4.4837,-1.71873 l -5.1562,-1.12091 q -1.7187,-0.37364 -3.5869,-1.19564 -1.7934,-0.822 -3.288,-2.09236 -1.4945,-1.27037 -2.466,-3.06382 -0.9714,-1.79346 -0.9714,-4.18473 0,-2.69018 1.1209,-4.78255 1.1956,-2.09236 3.2133,-3.51218 2.0176,-1.49455 4.7078,-2.24182 2.7649,-0.822 5.9034,-0.822 5.2309,0 9.3409,2.09236 4.1101,2.01764 6.053,6.50128 l -8.4442,3.43746 q -1.0462,-2.1671 -3.0638,-3.13855 -2.0177,-0.97146 -4.0353,-0.97146 -2.0924,0 -3.6617,0.89673 -1.5692,0.822 -1.5692,2.16709 0,1.27037 1.2703,2.01764 1.3451,0.74727 3.5869,1.34509 l 5.6046,1.34509 q 5.6045,1.34509 8.2947,4.33419 2.7649,2.91436 2.7649,6.94964 0,2.39127 -1.1209,4.55836 -1.1209,2.16709 -3.2133,3.88582 -2.0176,1.644 -4.932,2.61546 -2.8396,0.97145 -6.3518,0.97145 z"
         style="font-weight:bold;font-size:74.7273px;line-height:1.25;font-family:'Product Sans';-inkscape-font-specification:'Product Sans Bold';stroke-width:0.778409"
         id="path30" />
      <path
         d="m -1163.5388,384.54263 q -2.3913,4.63309 -6.7255,7.62219 -4.2594,2.91436 -10.686,2.91436 -4.2594,0 -7.8464,-1.41982 -3.5121,-1.49454 -6.1276,-4.11 -2.5407,-2.61545 -4.0353,-6.12764 -1.4198,-3.58691 -1.4198,-7.84636 0,-4.25946 1.4198,-7.84637 1.4946,-3.58691 4.0353,-6.12764 2.6155,-2.61546 6.1276,-4.03527 3.587,-1.49455 7.8464,-1.49455 6.3518,0 10.686,2.91436 4.3342,2.91437 6.3518,7.54746 l -8.9672,3.73637 q -1.2704,-2.54073 -3.288,-3.8111 -1.943,-1.34509 -4.932,-1.34509 -1.943,0 -3.6617,0.74728 -1.7187,0.74727 -3.0638,2.09236 -1.2704,1.34509 -2.0176,3.288 -0.7473,1.94291 -0.7473,4.33419 0,2.39127 0.7473,4.33418 0.7472,1.94291 2.0176,3.288 1.3451,1.34509 3.0638,2.09237 1.7187,0.74727 3.6617,0.74727 3.0638,0 5.1561,-1.34509 2.1671,-1.41982 3.4375,-4.03528 z"
         style="font-weight:bold;font-size:74.7273px;line-height:1.25;font-family:'Product Sans';-inkscape-font-specification:'Product Sans Bold';stroke-width:0.778409"
         id="path32" />
      <path
         d="m -1157.5608,340.3788 h 9.7893 v 15.02018 l -0.5978,6.65073 h 0.5978 q 1.5693,-2.61545 4.4836,-4.25945 2.9891,-1.71873 6.6508,-1.71873 7.0991,0 10.4618,4.18473 3.4374,4.18473 3.4374,11.43328 v 22.194 h -9.7892 v -20.99837 q 0,-3.81109 -1.7935,-5.754 -1.7934,-2.01764 -5.0067,-2.01764 -2.0177,0 -3.5869,0.89673 -1.5693,0.822 -2.6902,2.31655 -1.0462,1.49454 -1.644,3.51218 -0.5231,1.94291 -0.5231,4.18473 v 17.85982 h -9.7893 z"
         style="font-weight:bold;font-size:74.7273px;line-height:1.25;font-family:'Product Sans';-inkscape-font-specification:'Product Sans Bold';stroke-width:0.778409"
         id="path34" />
      <g
         aria-label="la"
         id="text10039-1"
         style="font-size:74.7273px;line-height:1.25;stroke-width:0.778409">
        <path
           d="M -1071.9983,393.88354 V 340.3788 h 9.7893 v 53.50474 z"
           style="font-weight:bold;font-family:'Product Sans';-inkscape-font-specification:'Product Sans Bold'"
           id="path25" />
        <path
           d="m -1031.6457,389.99773 h -0.5978 q -1.7188,2.09236 -4.1848,3.58691 -2.3913,1.49454 -6.2023,1.49454 -2.8397,0 -5.3804,-0.97145 -2.466,-0.89673 -4.3342,-2.54073 -1.8682,-1.644 -2.9144,-3.96055 -1.0461,-2.31654 -1.0461,-5.08146 0,-2.83963 1.1209,-5.08145 1.1209,-2.31655 3.1385,-3.96055 2.0177,-1.644 4.7078,-2.466 2.7649,-0.89673 5.9782,-0.89673 3.5869,0 5.9035,0.59782 2.3165,0.52309 3.8111,1.12091 v -1.12091 q 0,-2.91436 -2.3166,-4.78255 -2.3165,-1.94291 -5.754,-1.94291 -5.0814,0 -8.5936,4.25946 l -7.0991,-4.85727 q 5.8287,-7.32328 15.9169,-7.32328 8.5189,0 13.0026,4.03527 4.4836,3.96055 4.4836,11.80692 v 21.96982 h -9.6398 z m 0,-10.98492 q -1.7188,-0.822 -3.5869,-1.27036 -1.7935,-0.52309 -3.9606,-0.52309 -3.5122,0 -5.4551,1.56927 -1.8682,1.49455 -1.8682,3.73636 0,2.24182 1.7935,3.58692 1.8682,1.34509 4.2594,1.34509 1.943,0 3.587,-0.67255 1.644,-0.74727 2.7649,-1.86818 1.1956,-1.19564 1.7934,-2.69018 0.6726,-1.56928 0.6726,-3.21328 z"
           style="font-weight:bold;font-family:'Product Sans';-inkscape-font-specification:'Product Sans Bold'"
           id="path27" />
      </g>
    </g>
  </g>
</svg>
