<?xml version="1.0" encoding="UTF-8" standalone="no"?>
<!-- Created with Inkscape (http://www.inkscape.org/) -->

<svg
   width="38.92524mm"
   height="38.92524mm"
   viewBox="0 0 38.92524 38.92524"
   version="1.1"
   id="svg5"
   inkscape:version="1.1.1 (3bf5ae0d25, 2021-09-20)"
   sodipodi:docname="avatar-default.svg"
   xmlns:inkscape="http://www.inkscape.org/namespaces/inkscape"
   xmlns:sodipodi="http://sodipodi.sourceforge.net/DTD/sodipodi-0.dtd"
   xmlns="http://www.w3.org/2000/svg"
   xmlns:svg="http://www.w3.org/2000/svg">
  <sodipodi:namedview
     id="namedview7"
     pagecolor="#ffffff"
     bordercolor="#666666"
     borderopacity="1.0"
     inkscape:pageshadow="2"
     inkscape:pageopacity="0.0"
     inkscape:pagecheckerboard="0"
     inkscape:document-units="mm"
     showgrid="false"
     inkscape:zoom="1.4289282"
     inkscape:cx="254.73638"
     inkscape:cy="256.48594"
     inkscape:window-width="1920"
     inkscape:window-height="991"
     inkscape:window-x="2391"
     inkscape:window-y="-9"
     inkscape:window-maximized="1"
     inkscape:current-layer="layer1"
     fit-margin-top="0"
     fit-margin-left="0"
     fit-margin-right="0"
     fit-margin-bottom="0" />
  <defs
     id="defs2" />
  <g
     inkscape:label="Layer 1"
     inkscape:groupmode="layer"
     id="layer1"
     transform="translate(1371.6628,-566.19107)">
    <rect
       style="fill:none;fill-rule:evenodd;stroke-width:0.264583"
       id="rect175-0"
       width="289.18436"
       height="92.221611"
       x="-1528.9507"
       y="520.15552" />
    <g
       id="g176">
      <circle
         style="fill:none;stroke-width:0.243715"
         id="path56"
         cx="-1352.2002"
         cy="585.65369"
         r="19.46262" />
      <g
         id="g24925"
         transform="matrix(0.82544933,0,0,0.82544933,-569.64952,423.28229)"
         style="fill:#cccccc">
        <g
           id="g32055-3-5-0-8-1"
           transform="translate(-1302.0017,-222.0913)"
           style="fill:#cccccc;fill-opacity:1">
          <path
             id="path14945-48-5-6-2-1-6-9-7-2"
             style="fill:#cccccc;fill-opacity:1;stroke-width:0.204133"
             d="m 343.15434,409.66161 c -1.43265,0 -2.86531,0.37409 -4.15323,1.12238 -1.98912,1.15573 -3.3886,3.06692 -3.92328,5.26172 -0.12882,0.89868 -0.19895,1.81695 -0.19895,2.75228 0,10.57447 8.51892,19.09392 19.09341,19.09392 10.57449,0 19.09237,-8.51945 19.09237,-19.09392 0,-0.9339 -0.07,-1.85076 -0.19844,-2.74815 -0.53448,-2.19652 -1.93549,-4.10938 -3.92585,-5.26585 -2.57587,-1.49658 -5.72855,-1.49658 -8.30442,0 -2.5584,1.48649 -4.14373,4.22254 -4.16512,7.20474 9e-5,0.0204 0.001,0.0406 0.001,0.061 h -5.2e-4 v 8.40517 h -5.00021 v -8.40517 h -0.002 c 0,-0.0204 9.4e-4,-0.0406 10e-4,-0.061 -0.0214,-2.9822 -1.60465,-5.71825 -4.16305,-7.20474 -1.28794,-0.74829 -2.72059,-1.12241 -4.15324,-1.12238 z m 0.002,3.9429 c 1.84474,3e-5 3.3401,1.49562 3.33985,3.34036 -3e-5,1.84453 -1.49532,3.33981 -3.33985,3.33984 -1.84453,-3e-5 -3.33981,-1.49531 -3.33984,-3.33984 -2.5e-4,-1.84473 1.49511,-3.34033 3.33984,-3.34036 z m 21.63382,0 c 1.84474,3e-5 3.3401,1.49562 3.33985,3.34036 -3e-5,1.84453 -1.49532,3.33981 -3.33985,3.33984 -1.84453,-3e-5 -3.33981,-1.49531 -3.33984,-3.33984 -2.5e-4,-1.84473 1.49511,-3.34033 3.33984,-3.34036 z"
             sodipodi:nodetypes="cscssscssccccccccsccscscsscscs" />
          <g
             id="g29069-3-2-2-23-4-5-10"
             style="fill:#cccccc;fill-opacity:1"
             transform="translate(135.25275,10.466429)" />
        </g>
        <path
           style="fill:#cccccc;fill-opacity:1;stroke-width:0.204133"
           d="m -948.02938,177.61276 c -5.06422,0 -9.65346,1.95747 -13.06484,5.15525 0.74331,-0.12753 1.49513,-0.19224 2.24689,-0.19224 2.30294,0 4.60606,0.59832 6.66523,1.79472 1.66352,0.96652 3.06774,2.26459 4.15168,3.78272 1.08432,-1.51813 2.48919,-2.8162 4.15272,-3.78272 2.73168,-1.58716 5.89247,-2.12032 8.91314,-1.60197 -3.41102,-3.19792 -8.00049,-5.15576 -13.06482,-5.15576 z"
           id="path39285-0-9-47" />
      </g>
    </g>
  </g>
</svg>
